# xmcd
#
# Track frame offsets:
#	150
#	19993
#	36365
#	53610
#	70827
#	87784
#	103027
#	121387
#	134044
#	146500
#	160047
#	174712
#	191644
#	205315
#	216364
#	232490
#	245621
#	263897
#	280345
#	300077
#
# Disc length: 4252 seconds
#
# Revision: 0
# Processed by: cddbd v1.5.2PL0 Copyright (c) Steve Scherf et al.
# Submitted via: EZCDAudioConverter 8.2.2.1
#
DISCID=30109a14
DTITLE=Matti ja Teppo - 50v juhlalevy
DYEAR=2019
DGENRE=Country
TTITLE0=Tiedäthän sen
TTITLE1=Nyt pidetään hauskaa!
TTITLE2=Se on mahtavaa!
TTITLE3=Suoraan sun luo
TTITLE4=Hänelle
TTITLE5=Pohjan poika
TTITLE6=Jälkeenpäin
TTITLE7=Missä sitä ollaan oltu
TTITLE8=Jätä kainous kaupunkiin
TTITLE9=Cara mia
TTITLE10=Olet mulle sama nainen
TTITLE11=Niin ikävä sua
TTITLE12=Vauhti kiihtyy
TTITLE13=Näitä polkuja tallaan
TTITLE14=Pidä itsestäsi huolta
TTITLE15=Jos ei tunteita olisi
TTITLE16=Nainen mitä sä teet
TTITLE17=Yhdessä viimeistä iltaa
TTITLE18=Luotuja kulkemaan
TTITLE19=Älä sano hyvästi milloinkaan
EXTD=
EXTT0=
EXTT1=
EXTT2=
EXTT3=
EXTT4=
EXTT5=
EXTT6=
EXTT7=
EXTT8=
EXTT9=
EXTT10=
EXTT11=
EXTT12=
EXTT13=
EXTT14=
EXTT15=
EXTT16=
EXTT17=
EXTT18=
EXTT19=
PLAYORDER=
